<?xml version="1.0" encoding="UTF-8"?>
<!DOCTYPE svg PUBLIC "-//W3C//DTD SVG 1.1//EN" "http://www.w3.org/Graphics/SVG/1.1/DTD/svg11.dtd">
<svg xmlns="http://www.w3.org/2000/svg" version="1.1" width="32px" height="32px" style="shape-rendering:geometricPrecision; text-rendering:geometricPrecision; image-rendering:optimizeQuality; fill-rule:evenodd; clip-rule:evenodd" xmlns:xlink="http://www.w3.org/1999/xlink">
<g><path style="opacity:1" fill="#042009" d="M -0.5,-0.5 C 1.16667,-0.5 2.83333,-0.5 4.5,-0.5C 4.58499,1.92878 5.58499,3.92878 7.5,5.5C 6.83333,5.83333 6.16667,6.16667 5.5,6.5C 2.87238,5.53514 0.872377,3.86847 -0.5,1.5C -0.5,0.833333 -0.5,0.166667 -0.5,-0.5 Z"/></g>
<g><path style="opacity:1" fill="#0a2b0f" d="M 5.5,-0.5 C 8.16667,-0.5 10.8333,-0.5 13.5,-0.5C 13.5,0.833333 13.5,2.16667 13.5,3.5C 12.5,4.83333 11.5,6.16667 10.5,7.5C 9.33385,4.49683 7.66718,1.83017 5.5,-0.5 Z"/></g>
<g><path style="opacity:1" fill="#35481d" d="M 13.5,-0.5 C 15.1667,-0.5 16.8333,-0.5 18.5,-0.5C 18.5,0.833333 18.5,2.16667 18.5,3.5C 16.8333,3.5 15.1667,3.5 13.5,3.5C 13.5,2.16667 13.5,0.833333 13.5,-0.5 Z"/></g>
<g><path style="opacity:1" fill="#07280e" d="M 18.5,-0.5 C 20.1667,-0.5 21.8333,-0.5 23.5,-0.5C 22.758,1.9798 21.758,4.31314 20.5,6.5C 19.5987,5.70951 18.9321,4.70951 18.5,3.5C 18.5,2.16667 18.5,0.833333 18.5,-0.5 Z"/></g>
<g><path style="opacity:1" fill="#39481f" d="M 4.5,-0.5 C 4.83333,-0.5 5.16667,-0.5 5.5,-0.5C 7.66718,1.83017 9.33385,4.49683 10.5,7.5C 9.01779,12.4563 7.01779,17.123 4.5,21.5C 2.92589,20.0719 1.25923,19.7386 -0.5,20.5C -0.5,14.1667 -0.5,7.83333 -0.5,1.5C 0.872377,3.86847 2.87238,5.53514 5.5,6.5C 6.16667,6.16667 6.83333,5.83333 7.5,5.5C 5.58499,3.92878 4.58499,1.92878 4.5,-0.5 Z"/></g>
<g><path style="opacity:1" fill="#35461e" d="M 23.5,-0.5 C 26.1667,-0.5 28.8333,-0.5 31.5,-0.5C 31.5,4.16667 31.5,8.83333 31.5,13.5C 28.7616,13.7061 26.4282,14.7061 24.5,16.5C 22.5968,13.4701 21.2635,10.1368 20.5,6.5C 21.758,4.31314 22.758,1.9798 23.5,-0.5 Z"/></g>
<g><path style="opacity:1" fill="#031e08" d="M 31.5,13.5 C 31.5,19.5 31.5,25.5 31.5,31.5C 20.8333,31.5 10.1667,31.5 -0.5,31.5C -0.5,27.8333 -0.5,24.1667 -0.5,20.5C 1.25923,19.7386 2.92589,20.0719 4.5,21.5C 4.12312,23.258 3.45645,24.9246 2.5,26.5C 5.61574,28.0094 8.28241,27.5094 10.5,25C 14.1516,24.5014 17.8183,24.3347 21.5,24.5C 21.5,25.5 21.5,26.5 21.5,27.5C 23.924,27.8076 26.2573,27.4742 28.5,26.5C 27.1538,23.1454 25.8204,19.8121 24.5,16.5C 26.4282,14.7061 28.7616,13.7061 31.5,13.5 Z"/></g>
<g><path style="opacity:1" fill="#3a7f25" d="M 13.5,3.5 C 15.1667,3.5 16.8333,3.5 18.5,3.5C 18.9321,4.70951 19.5987,5.70951 20.5,6.5C 21.2635,10.1368 22.5968,13.4701 24.5,16.5C 25.8204,19.8121 27.1538,23.1454 28.5,26.5C 26.2573,27.4742 23.924,27.8076 21.5,27.5C 21.5,26.5 21.5,25.5 21.5,24.5C 17.8183,24.3347 14.1516,24.5014 10.5,25C 8.28241,27.5094 5.61574,28.0094 2.5,26.5C 3.45645,24.9246 4.12312,23.258 4.5,21.5C 7.01779,17.123 9.01779,12.4563 10.5,7.5C 11.5,6.16667 12.5,4.83333 13.5,3.5 Z"/></g>
<g><path style="opacity:1" fill="#09230b" d="M 14.5,12.5 C 16.3627,13.9672 17.696,15.9672 18.5,18.5C 16.5,19.8333 14.5,19.8333 12.5,18.5C 13.7472,16.677 14.4139,14.677 14.5,12.5 Z"/></g>
</svg>
